# Blender v3.6.2 OBJ File: ''
# www.blender.org
mtllib Room41.mtl
o Curve_mesh_Curve
v 0.000000 0.500000 0.000000
v 0.000000 0.000000 0.000000
v 0.500000 0.000000 0.000000
v 1.000000 0.000000 0.000000
v 1.000000 0.500000 0.000000
v 1.000000 1.000000 0.000000
v 0.500000 1.000000 0.000000
v 0.000000 1.000000 0.000000
v 0.953599 0.500473 0.000000
v 0.953599 0.046402 0.000000
v 0.590436 0.046402 0.000000
v 0.227273 0.046402 0.000000
v 0.227273 0.500473 0.000000
v 0.227273 0.954545 0.000000
v 0.590436 0.954545 0.000000
v 0.953599 0.954545 0.000000
v 0.000000 0.500000 0.000000
v 0.000000 0.000000 0.000000
v 0.500000 0.000000 0.000000
v 1.000000 0.000000 0.000000
v 1.000000 0.500000 0.000000
v 1.000000 1.000000 0.000000
v 0.500000 1.000000 0.000000
v 0.000000 1.000000 0.000000
v 0.953599 0.500473 0.000000
v 0.953599 0.046402 0.000000
v 0.590436 0.046402 0.000000
v 0.227273 0.046402 0.000000
v 0.227273 0.500473 0.000000
v 0.227273 0.954545 0.000000
v 0.590436 0.954545 0.000000
v 0.953599 0.954545 0.000000
v 0.000000 0.500000 0.200000
v 0.000000 0.000000 0.200000
v 0.500000 0.000000 0.200000
v 1.000000 0.000000 0.200000
v 1.000000 0.500000 0.200000
v 1.000000 1.000000 0.200000
v 0.500000 1.000000 0.200000
v 0.000000 1.000000 0.200000
v 0.953599 0.500473 0.200000
v 0.953599 0.046402 0.200000
v 0.590436 0.046402 0.200000
v 0.227273 0.046402 0.200000
v 0.227273 0.500473 0.200000
v 0.227273 0.954545 0.200000
v 0.590436 0.954545 0.200000
v 0.953599 0.954545 0.200000
vt 0.000000 0.000000
vt 0.466667 0.000000
vt 0.866667 0.000000
vt 0.400000 0.000000
vt 0.333333 0.000000
vt 0.933333 0.000000
vt 1.000000 0.000000
vt 0.266667 0.000000
vt 0.800000 0.000000
vt 0.533333 0.000000
vt 0.733333 0.000000
vt 0.600000 0.000000
vt 0.066667 0.000000
vt 0.200000 0.000000
vt 0.666667 0.000000
vt 0.133333 0.000000
vt 0.400000 0.000000
vt 0.466667 0.000000
vt 0.466667 0.000000
vt 0.400000 0.000000
vt 0.600000 0.000000
vt 0.666667 0.000000
vt 0.666667 0.000000
vt 0.600000 0.000000
vt 0.133333 0.000000
vt 0.200000 0.000000
vt 0.200000 0.000000
vt 0.133333 0.000000
vt 0.066667 0.000000
vt 0.066667 0.000000
vt 0.533333 0.000000
vt 0.533333 0.000000
vt 0.733333 0.000000
vt 0.800000 0.000000
vt 0.800000 0.000000
vt 0.733333 0.000000
vt 0.000000 0.000000
vt 0.000000 0.000000
vt 0.933333 0.000000
vt 1.000000 0.000000
vt 1.000000 0.000000
vt 0.933333 0.000000
vt 0.866667 0.000000
vt 0.866667 0.000000
vt 0.333333 0.000000
vt 0.333333 0.000000
vt 0.266667 0.000000
vt 0.266667 0.000000
vn 0.0000 0.0000 -1.0000
vn 0.0000 0.0000 1.0000
vn 0.0000 1.0000 0.0000
vn 0.0000 -1.0000 0.0000
vn -1.0000 0.0000 0.0000
vn 1.0000 0.0000 0.0000
usemtl SVGMat.001
s off
f 1/1/1 8/2/1 14/3/1
f 14/3/1 8/2/1 7/4/1
f 14/3/1 7/4/1 6/5/1
f 14/3/1 6/5/1 15/6/1
f 15/6/1 6/5/1 16/7/1
f 16/7/1 6/5/1 5/8/1
f 1/1/1 14/3/1 13/9/1
f 9/10/1 16/7/1 5/8/1
f 1/1/1 13/9/1 12/11/1
f 10/12/1 9/10/1 5/8/1
f 2/13/1 1/1/1 12/11/1
f 10/12/1 5/8/1 4/14/1
f 2/13/1 12/11/1 11/15/1
f 2/13/1 11/15/1 10/12/1
f 2/13/1 10/12/1 4/14/1
f 3/16/2 2/13/2 4/14/2
f 23/17/3 24/18/3 40/19/3 39/20/3
f 26/21/3 27/22/3 43/23/3 42/24/3
f 19/25/4 20/26/4 36/27/4 35/28/4
f 18/29/4 19/25/4 35/28/4 34/30/4
f 25/31/5 26/21/5 42/24/5 41/32/5
f 28/33/6 29/34/6 45/35/6 44/36/6
f 17/37/5 18/29/5 34/30/5 33/38/5
f 31/39/4 32/40/4 48/41/4 47/42/4
f 32/40/5 25/31/5 41/32/5 48/41/5
f 24/18/5 17/37/5 33/38/5 40/19/5
f 30/43/4 31/39/4 47/42/4 46/44/4
f 22/45/3 23/17/3 39/20/3 38/46/3
f 21/47/6 22/45/6 38/46/6 37/48/6
f 27/22/3 28/33/3 44/36/3 43/23/3
f 20/26/6 21/47/6 37/48/6 36/27/6
f 29/34/6 30/43/6 46/44/6 45/35/6
f 6/5/2 7/4/2 23/17/2 22/45/2
f 14/3/2 15/6/2 31/39/2 30/43/2
f 8/2/2 1/1/2 17/37/2 24/18/2
f 16/7/2 9/10/2 25/31/2 32/40/2
f 15/6/2 16/7/2 32/40/2 31/39/2
f 1/1/2 2/13/2 18/29/2 17/37/2
f 12/11/2 13/9/2 29/34/2 28/33/2
f 9/10/2 10/12/2 26/21/2 25/31/2
f 2/13/2 3/16/2 19/25/2 18/29/2
f 3/16/2 4/14/2 20/26/2 19/25/2
f 10/12/2 11/15/2 27/22/2 26/21/2
f 7/4/2 8/2/2 24/18/2 23/17/2
f 13/9/2 14/3/2 30/43/2 29/34/2
f 4/14/2 5/8/2 21/47/2 20/26/2
f 11/15/2 12/11/2 28/33/2 27/22/2
f 5/8/2 6/5/2 22/45/2 21/47/2
f 33/38/2 46/44/2 40/19/2
f 46/44/2 39/20/2 40/19/2
f 46/44/2 38/46/2 39/20/2
f 46/44/2 47/42/2 38/46/2
f 47/42/2 48/41/2 38/46/2
f 48/41/2 37/48/2 38/46/2
f 33/38/2 45/35/2 46/44/2
f 41/32/2 37/48/2 48/41/2
f 33/38/2 44/36/2 45/35/2
f 42/24/2 37/48/2 41/32/2
f 34/30/2 44/36/2 33/38/2
f 42/24/2 36/27/2 37/48/2
f 34/30/2 43/23/2 44/36/2
f 34/30/2 42/24/2 43/23/2
f 34/30/2 36/27/2 42/24/2
f 35/28/2 36/27/2 34/30/2
o Curve
v 0.000000 0.065698 0.000000
v 0.000000 0.000000 0.000000
v 0.065712 0.000000 0.000000
v 0.131424 0.000000 0.000000
v 0.131424 0.065698 0.000000
v 0.131424 0.131396 0.000000
v 0.065712 0.131396 0.000000
v 0.000000 0.131396 0.000000
v 0.125326 0.065760 0.000000
v 0.125326 0.006097 0.000000
v 0.077597 0.006097 0.000000
v 0.029869 0.006097 0.000000
v 0.029869 0.065760 0.000000
v 0.029869 0.125424 0.000000
v 0.077597 0.125424 0.000000
v 0.125326 0.125424 0.000000
vt 0.000000 0.000000
vt 0.866667 0.000000
vt 0.466667 0.000000
vt 0.400000 0.000000
vt 0.333333 0.000000
vt 0.933333 0.000000
vt 1.000000 0.000000
vt 0.266667 0.000000
vt 0.800000 0.000000
vt 0.533333 0.000000
vt 0.733333 0.000000
vt 0.600000 0.000000
vt 0.066667 0.000000
vt 0.200000 0.000000
vt 0.666667 0.000000
vt 0.133333 0.000000
vn 0.0000 0.0000 1.0000
usemtl SVGMat.001
s off
f 49/49/7 62/50/7 56/51/7
f 62/50/7 55/52/7 56/51/7
f 62/50/7 54/53/7 55/52/7
f 62/50/7 63/54/7 54/53/7
f 63/54/7 64/55/7 54/53/7
f 64/55/7 53/56/7 54/53/7
f 49/49/7 61/57/7 62/50/7
f 57/58/7 53/56/7 64/55/7
f 49/49/7 60/59/7 61/57/7
f 58/60/7 53/56/7 57/58/7
f 50/61/7 60/59/7 49/49/7
f 58/60/7 52/62/7 53/56/7
f 50/61/7 59/63/7 60/59/7
f 50/61/7 58/60/7 59/63/7
f 50/61/7 52/62/7 58/60/7
f 51/64/7 52/62/7 50/61/7
