<?xml version="1.0" standalone="no"?>
<!DOCTYPE svg PUBLIC "-//W3C//DTD SVG 20010904//EN"
 "http://www.w3.org/TR/2001/REC-SVG-20010904/DTD/svg10.dtd">
<svg version="1.0" xmlns="http://www.w3.org/2000/svg"
 width="1056.000000pt" height="1056.000000pt" viewBox="0 0 1056.000000 1056.000000"
 preserveAspectRatio="xMidYMid meet">
<metadata>
Created by potrace 1.16, written by Peter Selinger 2001-2019
</metadata>
<g transform="translate(0.000000,1056.000000) scale(0.100000,-0.100000)"
fill="#000000" stroke="none">
<path d="M0 5280 l0 -5280 5280 0 5280 0 0 5280 0 5280 -5280 0 -5280 0 0
-5280z m10070 5 l0 -4795 -4795 0 -4795 0 0 4795 0 4795 4795 0 4795 0 0
-4795z"/>
<path d="M2370 6230 c0 -1700 2 -1920 15 -1920 8 0 15 -7 15 -15 0 -13 327
-15 2880 -15 2553 0 2880 2 2880 15 0 8 9 15 20 15 20 0 20 7 20 1920 l0 1920
-35 0 -35 0 0 -1900 0 -1900 -2845 0 -2845 0 0 1900 0 1900 -35 0 -35 0 0
-1920z"/>
</g>
</svg>
