<?xml version="1.0" standalone="no"?>
<!DOCTYPE svg PUBLIC "-//W3C//DTD SVG 20010904//EN"
 "http://www.w3.org/TR/2001/REC-SVG-20010904/DTD/svg10.dtd">
<svg version="1.0" xmlns="http://www.w3.org/2000/svg"
 width="1056.000000pt" height="1056.000000pt" viewBox="0 0 1056.000000 1056.000000"
 preserveAspectRatio="xMidYMid meet">
<metadata>
Created by potrace 1.16, written by Peter Selinger 2001-2019
</metadata>
<g transform="translate(0.000000,1056.000000) scale(0.100000,-0.100000)"
fill="#000000" stroke="none">
<path d="M0 5280 l0 -5280 5280 0 5280 0 0 5280 0 5280 -5280 0 -5280 0 0
-5280z m10070 960 l0 -3840 -1675 0 -1675 0 0 -85 0 -85 1675 0 1675 0 0 -870
0 -870 -2430 0 -2430 0 0 1075 0 1075 -85 0 -85 0 0 -1075 0 -1075 -2280 0
-2280 0 0 4795 0 4795 4795 0 4795 0 0 -3840z"/>
<path d="M6480 9035 l0 -85 1445 0 1445 0 0 85 0 85 -1445 0 -1445 0 0 -85z"/>
<path d="M8400 5395 l0 -2045 85 0 85 0 0 2045 0 2045 -85 0 -85 0 0 -2045z"/>
<path d="M5520 4195 l0 -2285 85 0 85 0 0 2285 0 2285 -85 0 -85 0 0 -2285z"/>
</g>
</svg>
