<?xml version="1.0" standalone="no"?>
<!DOCTYPE svg PUBLIC "-//W3C//DTD SVG 20010904//EN"
 "http://www.w3.org/TR/2001/REC-SVG-20010904/DTD/svg10.dtd">
<svg version="1.0" xmlns="http://www.w3.org/2000/svg"
 width="1056.000000pt" height="1056.000000pt" viewBox="0 0 1056.000000 1056.000000"
 preserveAspectRatio="xMidYMid meet">
<metadata>
Created by potrace 1.16, written by Peter Selinger 2001-2019
</metadata>
<g transform="translate(0.000000,1056.000000) scale(0.100000,-0.100000)"
fill="#000000" stroke="none">
<path d="M0 5280 l0 -5280 5280 0 5280 0 0 5280 0 5280 -5280 0 -5280 0 0
-5280z m10070 1560 l0 -3240 -1555 0 -1555 0 0 -85 0 -85 1555 0 1555 0 0
-1470 0 -1470 -1230 0 -1230 0 0 955 0 955 -85 0 -85 0 0 -955 0 -955 -1235 0
-1235 0 0 1315 0 1315 -85 0 -85 0 0 -1315 0 -1315 -2160 0 -2160 0 0 4795 0
4795 4795 0 4795 0 0 -3240z"/>
<path d="M3360 5875 l0 -1565 85 0 85 0 0 1565 0 1565 -85 0 -85 0 0 -1565z"/>
<path d="M4800 4475 l0 -85 2285 0 2285 0 0 85 0 85 -2285 0 -2285 0 0 -85z"/>
</g>
</svg>
