<?xml version="1.0" standalone="no"?>
<!DOCTYPE svg PUBLIC "-//W3C//DTD SVG 20010904//EN"
 "http://www.w3.org/TR/2001/REC-SVG-20010904/DTD/svg10.dtd">
<svg version="1.0" xmlns="http://www.w3.org/2000/svg"
 width="1056.000000pt" height="1056.000000pt" viewBox="0 0 1056.000000 1056.000000"
 preserveAspectRatio="xMidYMid meet">
<metadata>
Created by potrace 1.16, written by Peter Selinger 2001-2019
</metadata>
<g transform="translate(0.000000,1056.000000) scale(0.100000,-0.100000)"
fill="#000000" stroke="none">
<path d="M0 5280 l0 -5280 5280 0 5280 0 0 5280 0 5280 -5280 0 -5280 0 0
-5280z m10070 5 l0 -4795 -4795 0 -4795 0 0 4795 0 4795 4795 0 4795 0 0
-4795z"/>
<path d="M5250 6730 l0 -1420 -1420 0 -1420 0 0 -35 0 -35 1420 0 1420 0 0
-1425 0 -1425 35 0 35 0 0 1425 0 1425 1425 0 1425 0 0 35 0 35 -1425 0 -1425
0 0 1420 0 1420 -35 0 -35 0 0 -1420z"/>
</g>
</svg>
