<?xml version="1.0" standalone="no"?>
<!DOCTYPE svg PUBLIC "-//W3C//DTD SVG 20010904//EN"
 "http://www.w3.org/TR/2001/REC-SVG-20010904/DTD/svg10.dtd">
<svg version="1.0" xmlns="http://www.w3.org/2000/svg"
 width="1056.000000pt" height="1056.000000pt" viewBox="0 0 1056.000000 1056.000000"
 preserveAspectRatio="xMidYMid meet">
<metadata>
Created by potrace 1.16, written by Peter Selinger 2001-2019
</metadata>
<g transform="translate(0.000000,1056.000000) scale(0.100000,-0.100000)"
fill="#000000" stroke="none">
<path d="M0 5280 l0 -5280 5280 0 5280 0 0 5280 0 5280 -5280 0 -5280 0 0
-5280z m6250 2880 l0 -1920 1910 0 1910 0 0 -1910 0 -1910 -950 0 -950 0 0
945 0 945 -960 0 -960 0 0 -1910 0 -1910 -965 0 -965 0 0 1910 0 1910 -960 0
-960 0 0 -945 0 -945 -953 0 -954 0 -6 1418 c-4 779 -7 1639 -7 1910 l0 492
1920 0 1920 0 0 1920 0 1920 965 0 965 0 0 -1920z"/>
</g>
</svg>
