<?xml version="1.0" standalone="no"?>
<!DOCTYPE svg PUBLIC "-//W3C//DTD SVG 20010904//EN"
 "http://www.w3.org/TR/2001/REC-SVG-20010904/DTD/svg10.dtd">
<svg version="1.0" xmlns="http://www.w3.org/2000/svg"
 width="1056.000000pt" height="1056.000000pt" viewBox="0 0 1056.000000 1056.000000"
 preserveAspectRatio="xMidYMid meet">
<metadata>
Created by potrace 1.16, written by Peter Selinger 2001-2019
</metadata>
<g transform="translate(0.000000,1056.000000) scale(0.100000,-0.100000)"
fill="#000000" stroke="none">
<path d="M0 5280 l0 -5280 5280 0 5280 0 0 5280 0 5280 -5280 0 -5280 0 0
-5280z m10070 5 l0 -4795 -630 0 -630 0 0 595 0 595 -85 0 -85 0 0 -595 0
-595 -1595 0 -1595 0 0 835 0 835 -85 0 -85 0 0 -835 0 -835 -2400 0 -2400 0
0 4795 0 4795 4795 0 4795 0 0 -4795z"/>
<path d="M1440 8075 l0 -85 2165 0 2165 0 0 85 0 85 -2165 0 -2165 0 0 -85z"/>
<path d="M7200 6595 l0 -1565 85 0 85 0 0 1565 0 1565 -85 0 -85 0 0 -1565z"/>
<path d="M3600 2555 l0 -85 1565 0 1565 0 0 85 0 85 -1565 0 -1565 0 0 -85z"/>
</g>
</svg>
