<?xml version="1.0" standalone="no"?>
<!DOCTYPE svg PUBLIC "-//W3C//DTD SVG 20010904//EN"
 "http://www.w3.org/TR/2001/REC-SVG-20010904/DTD/svg10.dtd">
<svg version="1.0" xmlns="http://www.w3.org/2000/svg"
 width="1056.000000pt" height="1056.000000pt" viewBox="0 0 1056.000000 1056.000000"
 preserveAspectRatio="xMidYMid meet">
<metadata>
Created by potrace 1.16, written by Peter Selinger 2001-2019
</metadata>
<g transform="translate(0.000000,1056.000000) scale(0.100000,-0.100000)"
fill="#000000" stroke="none">
<path d="M0 5280 l0 -5280 5280 0 5280 0 0 5280 0 5280 -5280 0 -5280 0 0
-5280z m10070 4080 l0 -720 -1675 0 -1675 0 0 -85 0 -85 1675 0 1675 0 0
-3990 0 -3990 -4795 0 -4795 0 0 4795 0 4795 4795 0 4795 0 0 -720z"/>
<path d="M5520 8315 l0 -85 360 0 360 0 0 -2080 0 -2080 85 0 85 0 0 2080 0
2080 1360 0 1360 0 0 85 0 85 -1805 0 -1805 0 0 -85z"/>
<path d="M2640 4195 l0 -2045 85 0 85 0 0 2045 0 2045 -85 0 -85 0 0 -2045z"/>
<path d="M4560 3715 l0 -1565 85 0 85 0 0 1565 0 1565 -85 0 -85 0 0 -1565z"/>
</g>
</svg>
