<?xml version="1.0" standalone="no"?>
<!DOCTYPE svg PUBLIC "-//W3C//DTD SVG 20010904//EN"
 "http://www.w3.org/TR/2001/REC-SVG-20010904/DTD/svg10.dtd">
<svg version="1.0" xmlns="http://www.w3.org/2000/svg"
 width="1056.000000pt" height="1056.000000pt" viewBox="0 0 1056.000000 1056.000000"
 preserveAspectRatio="xMidYMid meet">
<metadata>
Created by potrace 1.16, written by Peter Selinger 2001-2019
</metadata>
<g transform="translate(0.000000,1056.000000) scale(0.100000,-0.100000)"
fill="#000000" stroke="none">
<path d="M0 5280 l0 -5280 5280 0 5280 0 0 5280 0 5280 -5280 0 -5280 0 0
-5280z m4800 2640 l0 -2160 480 0 480 0 0 2160 0 2160 2155 0 2155 0 0 -4795
0 -4795 -2155 0 -2155 0 0 2155 0 2155 -480 0 -480 0 0 -2155 0 -2155 -2160 0
-2160 0 0 4795 0 4795 2160 0 2160 0 0 -2160z"/>
</g>
</svg>
