<?xml version="1.0" standalone="no"?>
<!DOCTYPE svg PUBLIC "-//W3C//DTD SVG 20010904//EN"
 "http://www.w3.org/TR/2001/REC-SVG-20010904/DTD/svg10.dtd">
<svg version="1.0" xmlns="http://www.w3.org/2000/svg"
 width="1056.000000pt" height="1056.000000pt" viewBox="0 0 1056.000000 1056.000000"
 preserveAspectRatio="xMidYMid meet">
<metadata>
Created by potrace 1.16, written by Peter Selinger 2001-2019
</metadata>
<g transform="translate(0.000000,1056.000000) scale(0.100000,-0.100000)"
fill="#000000" stroke="none">
<path d="M0 5280 l0 -5280 5280 0 5280 0 0 5280 0 5280 -5280 0 -5280 0 0
-5280z m2400 3840 l0 -960 960 0 960 0 0 960 0 960 2875 0 2875 0 0 -4795 0
-4795 -4795 0 -4795 0 0 4795 0 4795 960 0 960 0 0 -960z"/>
<path d="M5760 7200 l0 -960 480 0 480 0 0 -480 0 -480 960 0 960 0 0 480 0
480 240 0 240 0 0 960 0 960 -1680 0 -1680 0 0 -960z"/>
<path d="M4320 3360 l0 -960 960 0 960 0 0 960 0 960 -960 0 -960 0 0 -960z"/>
</g>
</svg>
