<?xml version="1.0" standalone="no"?>
<!DOCTYPE svg PUBLIC "-//W3C//DTD SVG 20010904//EN"
 "http://www.w3.org/TR/2001/REC-SVG-20010904/DTD/svg10.dtd">
<svg version="1.0" xmlns="http://www.w3.org/2000/svg"
 width="1056.000000pt" height="1056.000000pt" viewBox="0 0 1056.000000 1056.000000"
 preserveAspectRatio="xMidYMid meet">
<metadata>
Created by potrace 1.16, written by Peter Selinger 2001-2019
</metadata>
<g transform="translate(0.000000,1056.000000) scale(0.100000,-0.100000)"
fill="#000000" stroke="none">
<path d="M0 5280 l0 -5280 5280 0 5280 0 0 5280 0 5280 -5280 0 -5280 0 0
-5280z m10070 2160 l0 -2640 -955 0 -955 0 0 -960 0 -960 955 0 955 0 0 -1195
0 -1195 -4795 0 -4795 0 0 235 0 235 960 0 960 0 0 960 0 960 -960 0 -960 0 0
3600 0 3600 4795 0 4795 0 0 -2640z"/>
<path d="M1440 7680 l0 -960 960 0 960 0 0 -960 0 -960 480 0 480 0 0 -480 0
-480 960 0 960 0 0 960 0 960 -480 0 -480 0 0 480 0 480 -960 0 -960 0 0 960
0 960 -960 0 -960 0 0 -960z"/>
</g>
</svg>
