<?xml version="1.0" standalone="no"?>
<!DOCTYPE svg PUBLIC "-//W3C//DTD SVG 20010904//EN"
 "http://www.w3.org/TR/2001/REC-SVG-20010904/DTD/svg10.dtd">
<svg version="1.0" xmlns="http://www.w3.org/2000/svg"
 width="1056.000000pt" height="1056.000000pt" viewBox="0 0 1056.000000 1056.000000"
 preserveAspectRatio="xMidYMid meet">
<metadata>
Created by potrace 1.16, written by Peter Selinger 2001-2019
</metadata>
<g transform="translate(0.000000,1056.000000) scale(0.100000,-0.100000)"
fill="#000000" stroke="none">
<path d="M0 5280 l0 -5280 5280 0 5280 0 0 5280 0 5280 -5280 0 -5280 0 0
-5280z m10070 3600 l0 -1200 -835 0 -835 0 0 -85 0 -85 835 0 835 0 0 -3510 0
-3510 -2670 0 -2670 0 0 955 0 955 -85 0 -85 0 0 -955 0 -955 -2040 0 -2040 0
0 4795 0 4795 4795 0 4795 0 0 -1200z"/>
<path d="M3360 4795 l0 -1925 85 0 85 0 0 1925 0 1925 -85 0 -85 0 0 -1925z"/>
<path d="M7680 4920 l0 -1800 -1200 0 -1200 0 0 -85 0 -85 1200 0 1200 0 0
-400 0 -400 85 0 85 0 0 400 0 400 520 0 520 0 0 85 0 85 -520 0 -520 0 0
1800 0 1800 -85 0 -85 0 0 -1800z"/>
</g>
</svg>
