<?xml version="1.0" standalone="no"?>
<!DOCTYPE svg PUBLIC "-//W3C//DTD SVG 20010904//EN"
 "http://www.w3.org/TR/2001/REC-SVG-20010904/DTD/svg10.dtd">
<svg version="1.0" xmlns="http://www.w3.org/2000/svg"
 width="1056.000000pt" height="1056.000000pt" viewBox="0 0 1056.000000 1056.000000"
 preserveAspectRatio="xMidYMid meet">
<metadata>
Created by potrace 1.16, written by Peter Selinger 2001-2019
</metadata>
<g transform="translate(0.000000,1056.000000) scale(0.100000,-0.100000)"
fill="#000000" stroke="none">
<path d="M0 5280 l0 -5280 5280 0 5280 0 0 5280 0 5280 -5280 0 -5280 0 0
-5280z m10070 1680 l0 -3120 -835 0 -835 0 0 -85 0 -85 835 0 835 0 0 -1590 0
-1590 -1590 0 -1590 0 0 1075 0 1075 -85 0 -85 0 0 -1075 0 -1075 -155 0 -155
0 0 1675 0 1675 -85 0 -85 0 0 -1675 0 -1675 -2880 0 -2880 0 0 4795 0 4795
4795 0 4795 0 0 -3120z"/>
<path d="M1680 3275 l0 -85 1925 0 1925 0 0 85 0 85 -1925 0 -1925 0 0 -85z"/>
</g>
</svg>
