<?xml version="1.0" standalone="no"?>
<!DOCTYPE svg PUBLIC "-//W3C//DTD SVG 20010904//EN"
 "http://www.w3.org/TR/2001/REC-SVG-20010904/DTD/svg10.dtd">
<svg version="1.0" xmlns="http://www.w3.org/2000/svg"
 width="1056.000000pt" height="1056.000000pt" viewBox="0 0 1056.000000 1056.000000"
 preserveAspectRatio="xMidYMid meet">
<metadata>
Created by potrace 1.16, written by Peter Selinger 2001-2019
</metadata>
<g transform="translate(0.000000,1056.000000) scale(0.100000,-0.100000)"
fill="#000000" stroke="none">
<path d="M0 5280 l0 -5280 5280 0 5280 0 0 5280 0 5280 -5280 0 -5280 0 0
-5280z m10070 1920 l0 -2880 -630 0 -630 0 0 960 0 960 -85 0 -85 0 0 -960 0
-960 -480 0 -480 0 0 -85 0 -85 480 0 480 0 0 -400 0 -400 85 0 85 0 0 400 0
400 630 0 630 0 0 -1830 0 -1830 -1830 0 -1830 0 0 1315 0 1315 -85 0 -85 0 0
-1315 0 -1315 -2075 0 -2075 0 0 1195 0 1195 -85 0 -85 0 0 -1195 0 -1195
-720 0 -720 0 0 4795 0 4795 4795 0 4795 0 0 -2880z"/>
<path d="M2160 8555 l0 -85 1685 0 1685 0 0 85 0 85 -1685 0 -1685 0 0 -85z"/>
</g>
</svg>
